<?xml version="1.0" encoding="utf-8"?>
<!-- Generator: Adobe Illustrator 23.0.3, SVG Export Plug-In . SVG Version: 6.00 Build 0)  -->
<svg version="1.1" id="Layer_1" xmlns="http://www.w3.org/2000/svg" xmlns:xlink="http://www.w3.org/1999/xlink" x="0px" y="0px"
	 viewBox="500 425 1000 1000" style="enable-background:new 0 0 2000 2000;" xml:space="preserve">
<style type="text/css">
	.st0{fill:#EEEEEE;}
	.st1{fill:#232323;}
	.st2{fill:#00FFA3;}
	.st3{fill:#FFFFFF;}
	.st4{fill:url(#SVGID_1_);}
	.st5{fill:url(#SVGID_2_);}
	.st6{fill:url(#SVGID_3_);}
</style>
<g>
	<g>
		<linearGradient id="SVGID_1_" gradientUnits="userSpaceOnUse" x1="1083.8036" y1="635.42" x2="733.6158" y2="985.6077">
			<stop  offset="0" style="stop-color:#12ECAA"/>
			<stop  offset="1" style="stop-color:#CF2CF9"/>
		</linearGradient>
		<path class="st4" d="M841.44,878.78l54.56-1.1l153.75-153.75l-35.43-73.47L800.34,864.44c-25.03,25.03-37.43,51.85-37.43,81.07
			c-0.14,19.48,4.07,36.97,12.69,52.57l92.57-92.57L841.44,878.78z"/>
		<linearGradient id="SVGID_2_" gradientUnits="userSpaceOnUse" x1="1281.8645" y1="833.4809" x2="931.6768" y2="1183.6687">
			<stop  offset="0" style="stop-color:#12ECAA"/>
			<stop  offset="1" style="stop-color:#CF2CF9"/>
		</linearGradient>
		<path class="st5" d="M1225.73,834.98L1125.3,935.4l-0.98,48.34l-23.68-23.68l-162.2,162.2l35.62,73.66l226.19-226.19
			c24.83-24.83,37.04-53.05,36.83-84.87C1236.98,866.68,1233.18,850.03,1225.73,834.98z"/>
		<linearGradient id="SVGID_3_" gradientUnits="userSpaceOnUse" x1="1180.078" y1="731.6943" x2="829.8902" y2="1081.8821">
			<stop  offset="0" style="stop-color:#12ECAA"/>
			<stop  offset="1" style="stop-color:#CF2CF9"/>
		</linearGradient>
		<path class="st6" d="M1056.18,915.6l-29.01-29.01l59.08-1.19l96.74-97.17c-16.92-10.33-36.29-15.51-58.19-15.66
			c-30.63-0.2-58.45,12.41-83.87,37.83L939.9,911.42l-1.3,64.51l-31.6-31.6l-93.56,93.55c17.06,10.85,36.53,16.38,58.37,16.52
			c30.62,0.21,58.05-12.01,82.27-36.23L1056.18,915.6z"/>
	</g>
</g>
</svg>
